<svg xmlns="http://www.w3.org/2000/svg" width="166" height="45" viewBox="0 0 166 45"><path fill="#FFF" d="M224.681818,58 L224.681818,103 L59,103 L59,58 L224.681818,58 Z M185.071591,65.7158636 L182.525,84.0277955 C182.330682,84.8899545 182.075,85.7122273 181.359091,86.3197273 C180.551136,87.08575 179.2625,87.2401818 178.229545,86.8587045 C177.227273,86.3841591 176.705682,85.2704091 176.777273,84.1566591 L176.777273,84.1566591 L178.904545,65.7158636 L178.904545,65.7166818 L167.695455,65.7162727 L165.435227,84.2838864 C165.435227,85.8118409 165.343182,87.49525 165.885227,88.8933182 C167.153409,92.7745682 171.571591,95.2587727 175.447727,95.9603636 C180.326136,96.6251364 185.368182,96.2129773 189.142045,93.5129773 C191.760227,91.6659318 193.120455,88.9270682 193.631818,86.0296818 L193.631818,86.0296818 L195.994318,65.7162727 L185.071591,65.7158636 Z M125.00375,65.099875 C118.413295,64.8097273 112.020227,68.5657955 109.306932,74.5794318 C106.98125,79.9865909 107.886364,87.0168182 112.343409,91.1875 C117.380341,96.0853409 125.972273,97.4864773 132.398068,94.4929545 C137.666136,92.1069318 141.444091,86.7938636 141.539205,81.1054545 C141.604659,79.3852273 141.573977,77.5678409 140.829432,76.1401136 L140.829432,76.1401136 L134.144886,67.6763295 L133.012727,66.816625 C130.589886,65.6385455 127.845909,65.1610341 125.00375,65.099875 Z M86.8590909,65.7281364 L75.4280682,65.7285455 L66.6101136,95.4019545 L77.3978409,95.4019545 L80.7892045,82.2772955 L82.7906818,95.4285455 L89.7994318,95.4285455 L95.5154545,82.4685455 L94.9345455,95.4285455 L105.446136,95.4285455 L105.446136,65.7281364 L93.7410227,65.7281364 L88.6376136,77.7924318 L86.8590909,65.7281364 Z M165.302273,65.7158636 L136.695568,65.7158636 L143.991705,75.1439773 L148.33625,74.9946591 L145.734432,95.4021591 L157.170568,95.4021591 L159.590341,74.95375 L164.310227,75.1439773 L165.302273,65.7158636 Z M210.425,65.7158636 L199.0625,65.7154545 L195.084091,95.4021591 L214.209091,95.4021591 L216.857955,86.0165909 L207.878409,86.017 L210.425,65.7158636 Z M120.159091,77.8869318 C121.385341,75.7545455 123.679318,74.6397727 126.102159,74.9619318 C127.553409,75.2165909 129.072159,76.2014773 129.7175,77.6015909 C130.690114,79.4445455 130.622614,82.2478409 129.428068,83.9639773 C128.26625,85.8110227 126.294432,86.89 124.066932,86.69875 C122.355909,86.54125 120.74,85.4888636 119.96375,83.9639773 C118.866364,82.1486364 119.126136,79.6695455 120.159091,77.8869318 Z" transform="translate(-59 -58)"/></svg>