<svg xmlns="http://www.w3.org/2000/svg" width="129" height="46" viewBox="0 0 129 46"><path fill="#FFF" fill-rule="evenodd" d="M199.087771,102.017361 L79,102.017361 L80.4554585,95.5279839 L200.43964,95.5256691 L199.087771,102.017361 M174.922819,57 L173.55735,63.5420401 L181.26231,63.5420401 L179.867327,70.0962332 L172.167575,70.0962332 L170.294287,78.9013233 C169.745091,81.4939493 169.103879,83.7908538 170.175941,84.9445145 C170.93647,85.7547526 172.464597,86.2656925 176.191636,85.8450171 L176.536555,85.8041899 L175.239664,91.8873121 C169.37269,93.4758742 164.737503,90.9625317 163.380715,88.3288172 C161.97361,85.5980344 162.17304,83.0555909 162.832509,79.8624346 L162.907618,79.504919 L167.664045,57 L174.922819,57 Z M205.610027,87.8509465 C206.587578,87.8562996 207.238628,88.5374426 207.233451,89.4376278 C207.233451,89.5724675 207.217216,89.7139624 207.189727,89.856904 C206.948983,90.9584807 205.868819,91.8783421 204.739464,91.8844185 C204.739464,91.8844185 204.736281,91.8870227 204.731073,91.8870227 C203.806839,91.8845632 203.177869,91.2758314 203.109374,90.4535235 L203.103158,90.3062732 C203.103158,90.1613061 203.117048,90.0192325 203.147719,89.878027 C203.384412,88.77211 204.467181,87.8571677 205.597114,87.8505125 L205.610027,87.8509465 Z M207.23342,63.5414614 L205.909908,69.7773634 L189.374683,85.3377487 L202.607203,85.3377487 L201.209037,91.8870227 L178.532241,91.8870227 L179.869931,85.5854371 L196.323847,70.0965226 L183.168585,70.0965226 L184.55836,63.5414614 L207.23342,63.5414614 Z M162.680562,63.4472149 L163.071972,63.5420401 L161.674385,70.0962332 C158.780251,69.8575149 156.36934,69.9512661 154.706124,71.6515194 C153.544998,72.8415347 153.010813,74.7446259 152.358345,77.7435178 L152.276116,78.1241143 L149.347838,91.8873121 L142.082698,91.8873121 L145.609364,75.2916125 C146.545429,70.9061395 147.989313,68.1286153 150.530144,66.0059029 C153.432114,63.5795599 157.73921,62.3097337 162.680562,63.4472149 Z M205.584383,88.1277151 C204.610122,88.1306087 203.617054,88.9737908 203.424343,89.9330045 C203.395408,90.0597423 203.382676,90.1844545 203.382676,90.3025116 C203.397053,91.0173103 203.824695,91.525604 204.580722,91.5992501 L204.736281,91.6081164 C205.712856,91.6141604 206.716052,90.7657699 206.913971,89.8016371 C206.94146,89.6728739 206.955928,89.5481616 206.955928,89.4376278 C206.938856,88.6682313 206.453896,88.1444977 205.584383,88.1277151 Z M205.452436,88.9028987 C205.915116,88.9028987 206.159911,89.136698 206.075998,89.5386129 C206.015993,89.8145858 205.84832,90.0015004 205.627257,90.104203 L205.529405,90.1430767 L205.856955,90.8346365 L205.354634,90.8346365 L205.077142,90.2107859 L204.738596,90.2107859 L204.607518,90.8346365 L204.18014,90.8346365 L204.591604,88.9028987 L205.452436,88.9028987 Z M205.354634,89.2790609 L204.939409,89.2790609 L204.820194,89.8450404 L205.2441,89.8450404 C205.459381,89.8450404 205.600586,89.7284301 205.636756,89.5643655 C205.676108,89.3757057 205.567311,89.2790609 205.354634,89.2790609 Z M130.843773,63.020929 C132.135202,63.0324887 137.29178,63.2550804 140.144594,67.1598529 C143.631618,71.9298795 141.213184,79.8185805 141.205082,79.8379673 L141.205082,79.8379673 L122.180243,79.8379673 C120.89753,89.7032562 133.068114,85.6615376 135.485101,83.8032961 L135.485101,83.8032961 L138.373738,88.680963 C135.178674,91.0936097 130.573001,92.4006289 126.435217,92.4006289 C110.468865,92.4006289 114.160753,72.2010057 121.594876,66.3687547 C124.892951,63.7798904 128.249187,63.0203321 130.702922,63.0203321 L130.702922,63.0203321 Z M95.9565259,57 L92.501331,73.2528132 L105.239921,73.2528132 L108.704086,57 L115.955915,57 L108.540889,91.8873121 L101.2798,91.8873121 L103.846384,79.799483 L91.1014288,79.799483 L88.5438149,91.8873121 L81.2219614,91.8873121 L88.6300428,57 L95.9565259,57 Z M131.257616,68.8331962 C126.662939,68.4110264 124.190107,72.2695829 123.780379,73.8381795 L123.780379,73.8381795 L135.42723,73.8381795 C135.42723,73.8381795 136.196627,69.2895099 131.257616,68.8331962 Z" transform="translate(-79 -57)"/></svg>